<svg width="113" height="18" viewBox="0 0 113 18" fill="none" xmlns="http://www.w3.org/2000/svg">
<g clip-path="url(#clip0_63_1694)">
<path d="M3.12751 3.10123C2.98699 3.09764 2.84721 3.12261 2.71662 3.17463C2.58603 3.22664 2.46736 3.30462 2.3678 3.40384C2.26823 3.50306 2.18983 3.62145 2.13736 3.75185C2.08488 3.88225 2.05942 4.02195 2.06251 4.16248V14.9512C2.07897 15.2251 2.20199 15.4817 2.40524 15.666C2.60849 15.8503 2.87582 15.9478 3.15001 15.9375H14.91C15.053 15.9364 15.1943 15.9058 15.325 15.8476C15.4556 15.7894 15.5729 15.7049 15.6693 15.5993C15.7658 15.4937 15.8394 15.3693 15.8856 15.2339C15.9317 15.0985 15.9494 14.955 15.9375 14.8125V4.12498C15.9323 3.97985 15.8971 3.83738 15.834 3.70657C15.7709 3.57576 15.6814 3.45945 15.5711 3.365C15.4608 3.27055 15.3321 3.20001 15.1931 3.15784C15.0542 3.11566 14.908 3.10277 14.7638 3.11998L3.12751 3.10123Z" stroke="#008000" stroke-linecap="round" stroke-linejoin="round"/>
<path d="M14.8951 3.10125C14.8951 2.82897 14.7883 2.56757 14.5975 2.37329C14.4067 2.17902 14.1473 2.06741 13.8751 2.0625H4.12507C3.85218 2.06644 3.59181 2.17762 3.40024 2.372C3.20867 2.56637 3.10129 2.82834 3.10132 3.10125" stroke="#008000" stroke-linecap="round" stroke-linejoin="round"/>
<path d="M4.92379 9.01872C5.32558 9.01872 5.65129 8.69301 5.65129 8.29122C5.65129 7.88943 5.32558 7.56372 4.92379 7.56372C4.522 7.56372 4.19629 7.88943 4.19629 8.29122C4.19629 8.69301 4.522 9.01872 4.92379 9.01872Z" stroke="#008000" stroke-linecap="round" stroke-linejoin="round"/>
<path d="M13.0725 9.01872C13.4743 9.01872 13.8 8.69301 13.8 8.29122C13.8 7.88943 13.4743 7.56372 13.0725 7.56372C12.6707 7.56372 12.345 7.88943 12.345 8.29122C12.345 8.69301 12.6707 9.01872 13.0725 9.01872Z" stroke="#008000" stroke-linecap="round" stroke-linejoin="round"/>
<path d="M4.98755 9C5.15817 9.93936 5.65311 10.789 6.38606 11.4008C7.119 12.0126 8.04344 12.3478 8.99817 12.3478C9.9529 12.3478 10.8773 12.0126 11.6103 11.4008C12.3432 10.789 12.8382 9.93936 13.0088 9" stroke="#008000" stroke-linecap="round" stroke-linejoin="round"/>
<path d="M27.89 10.95H24.85L24.29 12.5H23.33L25.85 5.57H26.9L29.41 12.5H28.45L27.89 10.95ZM27.63 10.21L26.37 6.69L25.11 10.21H27.63ZM31.4183 5.1V12.5H30.5083V5.1H31.4183ZM33.4392 6.13C33.2659 6.13 33.1192 6.07 32.9992 5.95C32.8792 5.83 32.8192 5.68333 32.8192 5.51C32.8192 5.33667 32.8792 5.19 32.9992 5.07C33.1192 4.95 33.2659 4.89 33.4392 4.89C33.6059 4.89 33.7459 4.95 33.8592 5.07C33.9792 5.19 34.0392 5.33667 34.0392 5.51C34.0392 5.68333 33.9792 5.83 33.8592 5.95C33.7459 6.07 33.6059 6.13 33.4392 6.13ZM33.8792 7.02V12.5H32.9692V7.02H33.8792ZM40.4302 9.55C40.4302 9.72333 40.4202 9.90667 40.4002 10.1H36.0202C36.0535 10.64 36.2368 11.0633 36.5702 11.37C36.9102 11.67 37.3202 11.82 37.8002 11.82C38.1935 11.82 38.5202 11.73 38.7802 11.55C39.0468 11.3633 39.2335 11.1167 39.3402 10.81H40.3202C40.1735 11.3367 39.8802 11.7667 39.4402 12.1C39.0002 12.4267 38.4535 12.59 37.8002 12.59C37.2802 12.59 36.8135 12.4733 36.4002 12.24C35.9935 12.0067 35.6735 11.6767 35.4402 11.25C35.2068 10.8167 35.0902 10.3167 35.0902 9.75C35.0902 9.18333 35.2035 8.68667 35.4302 8.26C35.6568 7.83333 35.9735 7.50667 36.3802 7.28C36.7935 7.04667 37.2668 6.93 37.8002 6.93C38.3202 6.93 38.7802 7.04333 39.1802 7.27C39.5802 7.49667 39.8868 7.81 40.1002 8.21C40.3202 8.60333 40.4302 9.05 40.4302 9.55ZM39.4902 9.36C39.4902 9.01333 39.4135 8.71667 39.2602 8.47C39.1068 8.21667 38.8968 8.02667 38.6302 7.9C38.3702 7.76667 38.0802 7.7 37.7602 7.7C37.3002 7.7 36.9068 7.84667 36.5802 8.14C36.2602 8.43333 36.0768 8.84 36.0302 9.36H39.4902ZM44.4913 12.5L43.1913 10.46L41.9413 12.5H40.9913L42.7613 9.78L40.9913 7.02H42.0213L43.3213 9.05L44.5613 7.02H45.5113L43.7513 9.73L45.5213 12.5H44.4913ZM47.3265 8.03C47.5065 7.71667 47.7732 7.45667 48.1265 7.25C48.4865 7.03667 48.9032 6.93 49.3765 6.93C49.8632 6.93 50.3032 7.04667 50.6965 7.28C51.0965 7.51333 51.4098 7.84333 51.6365 8.27C51.8632 8.69 51.9765 9.18 51.9765 9.74C51.9765 10.2933 51.8632 10.7867 51.6365 11.22C51.4098 11.6533 51.0965 11.99 50.6965 12.23C50.3032 12.47 49.8632 12.59 49.3765 12.59C48.9098 12.59 48.4965 12.4867 48.1365 12.28C47.7832 12.0667 47.5132 11.8033 47.3265 11.49V15.1H46.4165V7.02H47.3265V8.03ZM51.0465 9.74C51.0465 9.32667 50.9632 8.96667 50.7965 8.66C50.6298 8.35333 50.4032 8.12 50.1165 7.96C49.8365 7.8 49.5265 7.72 49.1865 7.72C48.8532 7.72 48.5432 7.80333 48.2565 7.97C47.9765 8.13 47.7498 8.36667 47.5765 8.68C47.4098 8.98667 47.3265 9.34333 47.3265 9.75C47.3265 10.1633 47.4098 10.5267 47.5765 10.84C47.7498 11.1467 47.9765 11.3833 48.2565 11.55C48.5432 11.71 48.8532 11.79 49.1865 11.79C49.5265 11.79 49.8365 11.71 50.1165 11.55C50.4032 11.3833 50.6298 11.1467 50.7965 10.84C50.9632 10.5267 51.0465 10.16 51.0465 9.74ZM54.0843 7.91C54.2443 7.59667 54.471 7.35333 54.7643 7.18C55.0643 7.00667 55.4276 6.92 55.8543 6.92V7.86H55.6143C54.5943 7.86 54.0843 8.41333 54.0843 9.52V12.5H53.1743V7.02H54.0843V7.91ZM61.9048 9.55C61.9048 9.72333 61.8948 9.90667 61.8748 10.1H57.4948C57.5281 10.64 57.7114 11.0633 58.0448 11.37C58.3848 11.67 58.7948 11.82 59.2748 11.82C59.6681 11.82 59.9948 11.73 60.2548 11.55C60.5214 11.3633 60.7081 11.1167 60.8148 10.81H61.7948C61.6481 11.3367 61.3548 11.7667 60.9148 12.1C60.4748 12.4267 59.9281 12.59 59.2748 12.59C58.7548 12.59 58.2881 12.4733 57.8748 12.24C57.4681 12.0067 57.1481 11.6767 56.9148 11.25C56.6814 10.8167 56.5648 10.3167 56.5648 9.75C56.5648 9.18333 56.6781 8.68667 56.9048 8.26C57.1314 7.83333 57.4481 7.50667 57.8548 7.28C58.2681 7.04667 58.7414 6.93 59.2748 6.93C59.7948 6.93 60.2548 7.04333 60.6548 7.27C61.0548 7.49667 61.3614 7.81 61.5748 8.21C61.7948 8.60333 61.9048 9.05 61.9048 9.55ZM60.9648 9.36C60.9648 9.01333 60.8881 8.71667 60.7348 8.47C60.5814 8.21667 60.3714 8.02667 60.1048 7.9C59.8448 7.76667 59.5548 7.7 59.2348 7.7C58.7748 7.7 58.3814 7.84667 58.0548 8.14C57.7348 8.43333 57.5514 8.84 57.5048 9.36H60.9648ZM65.0459 12.59C64.6259 12.59 64.2493 12.52 63.9159 12.38C63.5826 12.2333 63.3193 12.0333 63.1259 11.78C62.9326 11.52 62.8259 11.2233 62.8059 10.89H63.7459C63.7726 11.1633 63.8993 11.3867 64.1259 11.56C64.3593 11.7333 64.6626 11.82 65.0359 11.82C65.3826 11.82 65.6559 11.7433 65.8559 11.59C66.0559 11.4367 66.1559 11.2433 66.1559 11.01C66.1559 10.77 66.0493 10.5933 65.8359 10.48C65.6226 10.36 65.2926 10.2433 64.8459 10.13C64.4393 10.0233 64.1059 9.91667 63.8459 9.81C63.5926 9.69667 63.3726 9.53333 63.1859 9.32C63.0059 9.1 62.9159 8.81333 62.9159 8.46C62.9159 8.18 62.9993 7.92333 63.1659 7.69C63.3326 7.45667 63.5693 7.27333 63.8759 7.14C64.1826 7 64.5326 6.93 64.9259 6.93C65.5326 6.93 66.0226 7.08333 66.3959 7.39C66.7693 7.69667 66.9693 8.11667 66.9959 8.65H66.0859C66.0659 8.36333 65.9493 8.13333 65.7359 7.96C65.5293 7.78667 65.2493 7.7 64.8959 7.7C64.5693 7.7 64.3093 7.77 64.1159 7.91C63.9226 8.05 63.8259 8.23333 63.8259 8.46C63.8259 8.64 63.8826 8.79 63.9959 8.91C64.1159 9.02333 64.2626 9.11667 64.4359 9.19C64.6159 9.25667 64.8626 9.33333 65.1759 9.42C65.5693 9.52667 65.8893 9.63333 66.1359 9.74C66.3826 9.84 66.5926 9.99333 66.7659 10.2C66.9459 10.4067 67.0393 10.6767 67.0459 11.01C67.0459 11.31 66.9626 11.58 66.7959 11.82C66.6293 12.06 66.3926 12.25 66.0859 12.39C65.7859 12.5233 65.4393 12.59 65.0459 12.59ZM70.2705 12.59C69.8505 12.59 69.4739 12.52 69.1405 12.38C68.8072 12.2333 68.5439 12.0333 68.3505 11.78C68.1572 11.52 68.0505 11.2233 68.0305 10.89H68.9705C68.9972 11.1633 69.1239 11.3867 69.3505 11.56C69.5839 11.7333 69.8872 11.82 70.2605 11.82C70.6072 11.82 70.8805 11.7433 71.0805 11.59C71.2805 11.4367 71.3805 11.2433 71.3805 11.01C71.3805 10.77 71.2739 10.5933 71.0605 10.48C70.8472 10.36 70.5172 10.2433 70.0705 10.13C69.6639 10.0233 69.3305 9.91667 69.0705 9.81C68.8172 9.69667 68.5972 9.53333 68.4105 9.32C68.2305 9.1 68.1405 8.81333 68.1405 8.46C68.1405 8.18 68.2239 7.92333 68.3905 7.69C68.5572 7.45667 68.7939 7.27333 69.1005 7.14C69.4072 7 69.7572 6.93 70.1505 6.93C70.7572 6.93 71.2472 7.08333 71.6205 7.39C71.9939 7.69667 72.1939 8.11667 72.2205 8.65H71.3105C71.2905 8.36333 71.1739 8.13333 70.9605 7.96C70.7539 7.78667 70.4739 7.7 70.1205 7.7C69.7939 7.7 69.5339 7.77 69.3405 7.91C69.1472 8.05 69.0505 8.23333 69.0505 8.46C69.0505 8.64 69.1072 8.79 69.2205 8.91C69.3405 9.02333 69.4872 9.11667 69.6605 9.19C69.8405 9.25667 70.0872 9.33333 70.4005 9.42C70.7939 9.52667 71.1139 9.63333 71.3605 9.74C71.6072 9.84 71.8172 9.99333 71.9905 10.2C72.1705 10.4067 72.2639 10.6767 72.2705 11.01C72.2705 11.31 72.1872 11.58 72.0205 11.82C71.8539 12.06 71.6172 12.25 71.3105 12.39C71.0105 12.5233 70.6639 12.59 70.2705 12.59ZM75.8812 9.74C75.8812 9.18 75.9945 8.69 76.2212 8.27C76.4478 7.84333 76.7578 7.51333 77.1512 7.28C77.5512 7.04667 77.9945 6.93 78.4812 6.93C78.9612 6.93 79.3778 7.03333 79.7312 7.24C80.0845 7.44667 80.3478 7.70667 80.5212 8.02V7.02H81.4412V12.5H80.5212V11.48C80.3412 11.8 80.0712 12.0667 79.7112 12.28C79.3578 12.4867 78.9445 12.59 78.4712 12.59C77.9845 12.59 77.5445 12.47 77.1512 12.23C76.7578 11.99 76.4478 11.6533 76.2212 11.22C75.9945 10.7867 75.8812 10.2933 75.8812 9.74ZM80.5212 9.75C80.5212 9.33667 80.4378 8.97667 80.2712 8.67C80.1045 8.36333 79.8778 8.13 79.5912 7.97C79.3112 7.80333 79.0012 7.72 78.6612 7.72C78.3212 7.72 78.0112 7.8 77.7312 7.96C77.4512 8.12 77.2278 8.35333 77.0612 8.66C76.8945 8.96667 76.8112 9.32667 76.8112 9.74C76.8112 10.16 76.8945 10.5267 77.0612 10.84C77.2278 11.1467 77.4512 11.3833 77.7312 11.55C78.0112 11.71 78.3212 11.79 78.6612 11.79C79.0012 11.79 79.3112 11.71 79.5912 11.55C79.8778 11.3833 80.1045 11.1467 80.2712 10.84C80.4378 10.5267 80.5212 10.1633 80.5212 9.75ZM85.209 7.77H84.059V12.5H83.149V7.77H82.439V7.02H83.149V6.63C83.149 6.01667 83.3057 5.57 83.619 5.29C83.939 5.00333 84.449 4.86 85.149 4.86V5.62C84.749 5.62 84.4657 5.7 84.299 5.86C84.139 6.01333 84.059 6.27 84.059 6.63V7.02H85.209V7.77ZM88.5 7.77H87.35V12.5H86.44V7.77H85.73V7.02H86.44V6.63C86.44 6.01667 86.5967 5.57 86.91 5.29C87.23 5.00333 87.74 4.86 88.44 4.86V5.62C88.04 5.62 87.7567 5.7 87.59 5.86C87.43 6.01333 87.35 6.27 87.35 6.63V7.02H88.5V7.77ZM90.031 6.13C89.8577 6.13 89.711 6.07 89.591 5.95C89.471 5.83 89.411 5.68333 89.411 5.51C89.411 5.33667 89.471 5.19 89.591 5.07C89.711 4.95 89.8577 4.89 90.031 4.89C90.1977 4.89 90.3377 4.95 90.451 5.07C90.571 5.19 90.631 5.33667 90.631 5.51C90.631 5.68333 90.571 5.83 90.451 5.95C90.3377 6.07 90.1977 6.13 90.031 6.13ZM90.471 7.02V12.5H89.561V7.02H90.471ZM92.932 5.1V12.5H92.022V5.1H92.932ZM94.9529 6.13C94.7796 6.13 94.6329 6.07 94.5129 5.95C94.3929 5.83 94.3329 5.68333 94.3329 5.51C94.3329 5.33667 94.3929 5.19 94.5129 5.07C94.6329 4.95 94.7796 4.89 94.9529 4.89C95.1196 4.89 95.2596 4.95 95.3729 5.07C95.4929 5.19 95.5529 5.33667 95.5529 5.51C95.5529 5.68333 95.4929 5.83 95.3729 5.95C95.2596 6.07 95.1196 6.13 94.9529 6.13ZM95.3929 7.02V12.5H94.4829V7.02H95.3929ZM96.6038 9.74C96.6038 9.18 96.7172 8.69 96.9438 8.27C97.1705 7.84333 97.4805 7.51333 97.8738 7.28C98.2738 7.04667 98.7172 6.93 99.2038 6.93C99.6838 6.93 100.1 7.03333 100.454 7.24C100.807 7.44667 101.07 7.70667 101.244 8.02V7.02H102.164V12.5H101.244V11.48C101.064 11.8 100.794 12.0667 100.434 12.28C100.08 12.4867 99.6672 12.59 99.1938 12.59C98.7072 12.59 98.2672 12.47 97.8738 12.23C97.4805 11.99 97.1705 11.6533 96.9438 11.22C96.7172 10.7867 96.6038 10.2933 96.6038 9.74ZM101.244 9.75C101.244 9.33667 101.16 8.97667 100.994 8.67C100.827 8.36333 100.6 8.13 100.314 7.97C100.034 7.80333 99.7238 7.72 99.3838 7.72C99.0438 7.72 98.7338 7.8 98.4538 7.96C98.1738 8.12 97.9505 8.35333 97.7838 8.66C97.6172 8.96667 97.5338 9.32667 97.5338 9.74C97.5338 10.16 97.6172 10.5267 97.7838 10.84C97.9505 11.1467 98.1738 11.3833 98.4538 11.55C98.7338 11.71 99.0438 11.79 99.3838 11.79C99.7238 11.79 100.034 11.71 100.314 11.55C100.6 11.3833 100.827 11.1467 100.994 10.84C101.16 10.5267 101.244 10.1633 101.244 9.75ZM104.812 7.77V11C104.812 11.2667 104.868 11.4567 104.982 11.57C105.095 11.6767 105.292 11.73 105.572 11.73H106.242V12.5H105.422C104.915 12.5 104.535 12.3833 104.282 12.15C104.028 11.9167 103.902 11.5333 103.902 11V7.77H103.192V7.02H103.902V5.64H104.812V7.02H106.242V7.77H104.812ZM112.344 9.55C112.344 9.72333 112.334 9.90667 112.314 10.1H107.934C107.968 10.64 108.151 11.0633 108.484 11.37C108.824 11.67 109.234 11.82 109.714 11.82C110.108 11.82 110.434 11.73 110.694 11.55C110.961 11.3633 111.148 11.1167 111.254 10.81H112.234C112.088 11.3367 111.794 11.7667 111.354 12.1C110.914 12.4267 110.368 12.59 109.714 12.59C109.194 12.59 108.728 12.4733 108.314 12.24C107.908 12.0067 107.588 11.6767 107.354 11.25C107.121 10.8167 107.004 10.3167 107.004 9.75C107.004 9.18333 107.118 8.68667 107.344 8.26C107.571 7.83333 107.888 7.50667 108.294 7.28C108.708 7.04667 109.181 6.93 109.714 6.93C110.234 6.93 110.694 7.04333 111.094 7.27C111.494 7.49667 111.801 7.81 112.014 8.21C112.234 8.60333 112.344 9.05 112.344 9.55ZM111.404 9.36C111.404 9.01333 111.328 8.71667 111.174 8.47C111.021 8.21667 110.811 8.02667 110.544 7.9C110.284 7.76667 109.994 7.7 109.674 7.7C109.214 7.7 108.821 7.84667 108.494 8.14C108.174 8.43333 107.991 8.84 107.944 9.36H111.404Z" fill="#008000"/>
</g>
<defs>
<clipPath id="clip0_63_1694">
<rect width="113" height="18" fill="white"/>
</clipPath>
</defs>
</svg>
