<svg width="41" height="40" viewBox="0 0 41 40" fill="none" xmlns="http://www.w3.org/2000/svg">
<g clip-path="url(#clip0_170_3074)">
<path d="M32.9943 23.3057L36.271 28.9823C36.4058 29.2161 36.482 29.479 36.4929 29.7486C36.5038 30.0182 36.4491 30.2865 36.3336 30.5303C36.218 30.7742 36.0451 30.9864 35.8295 31.1487C35.614 31.311 35.3623 31.4186 35.096 31.4623L34.9077 31.4807L34.721 31.479L29.8327 31.1623L27.661 35.5557C27.5431 35.7936 27.3701 35.9999 27.1565 36.1575C26.9428 36.3151 26.6946 36.4194 26.4325 36.4618C26.1704 36.5041 25.9019 36.4834 25.6495 36.4011C25.397 36.3189 25.1679 36.1776 24.981 35.989L24.8443 35.8323L24.7243 35.649L21.4443 29.9707C23.7533 29.8263 25.9975 29.1495 28.0013 27.9932C30.0051 26.8369 31.714 25.2326 32.9943 23.3057Z" fill="#FFA500"/>
<path d="M19.551 29.9707L16.2743 35.6507C16.1415 35.8808 15.9557 36.0759 15.7323 36.2197C15.509 36.3635 15.2545 36.4519 14.99 36.4775C14.7256 36.5031 14.4589 36.4651 14.212 36.3669C13.9652 36.2686 13.7454 36.1127 13.571 35.9124L13.4443 35.7457L13.3377 35.5557L11.1643 31.164L6.27933 31.4807C6.01024 31.498 5.74097 31.4498 5.49457 31.3403C5.24818 31.2308 5.032 31.0632 4.86456 30.8518C4.69712 30.6405 4.5834 30.3917 4.53314 30.1268C4.48288 29.8618 4.49759 29.5887 4.57599 29.3307L4.64266 29.1524L4.72599 28.9857L8.00599 23.304C9.28545 25.2309 10.9934 26.8355 12.9963 27.9924C14.9992 29.1492 17.2426 29.8252 19.551 29.9707Z" fill="#FFA500"/>
<g filter="url(#filter0_d_170_3074)">
<path d="M20.4997 3.33333L20.8997 3.33999C23.9229 3.44371 26.7876 4.7176 28.8896 6.89295C30.9915 9.0683 32.1664 11.975 32.1663 15L32.1613 15.3217L32.1497 15.6417L32.1197 16.05L32.0763 16.4533L32.0363 16.75C31.9267 17.4694 31.7498 18.1769 31.508 18.8633L31.3147 19.3767L31.0597 19.9567C30.1161 21.9666 28.6187 23.6657 26.7431 24.8542C24.8676 26.0428 22.6919 26.6716 20.4715 26.6667C18.2511 26.6618 16.0781 26.0234 14.2079 24.8266C12.3376 23.6297 10.8477 21.9241 9.91301 19.91L9.69634 19.415L9.60967 19.1933L9.47634 18.8317L9.31801 18.3417C9.26146 18.1519 9.20977 17.9607 9.16301 17.7683L9.06301 17.3167L8.98134 16.865L8.94801 16.6333L8.88301 16.095L8.84301 15.4867L8.83301 15C8.83296 11.975 10.0078 9.0683 12.1098 6.89295C14.2118 4.7176 17.0765 3.44371 20.0997 3.33999L20.4997 3.33333Z" fill="url(#paint0_radial_170_3074)"/>
<path d="M20.4997 3.33333L20.8997 3.33999C23.9229 3.44371 26.7876 4.7176 28.8896 6.89295C30.9915 9.0683 32.1664 11.975 32.1663 15L32.1613 15.3217L32.1497 15.6417L32.1197 16.05L32.0763 16.4533L32.0363 16.75C31.9267 17.4694 31.7498 18.1769 31.508 18.8633L31.3147 19.3767L31.0597 19.9567C30.1161 21.9666 28.6187 23.6657 26.7431 24.8542C24.8676 26.0428 22.6919 26.6716 20.4715 26.6667C18.2511 26.6618 16.0781 26.0234 14.2079 24.8266C12.3376 23.6297 10.8477 21.9241 9.91301 19.91L9.69634 19.415L9.60967 19.1933L9.47634 18.8317L9.31801 18.3417C9.26146 18.1519 9.20977 17.9607 9.16301 17.7683L9.06301 17.3167L8.98134 16.865L8.94801 16.6333L8.88301 16.095L8.84301 15.4867L8.83301 15C8.83296 11.975 10.0078 9.0683 12.1098 6.89295C14.2118 4.7176 17.0765 3.44371 20.0997 3.33999L20.4997 3.33333Z" stroke="white" stroke-width="2" stroke-linecap="round" stroke-linejoin="round"/>
</g>
</g>
<defs>
<filter id="filter0_d_170_3074" x="5.83301" y="0.333328" width="31.333" height="31.3334" filterUnits="userSpaceOnUse" color-interpolation-filters="sRGB">
<feFlood flood-opacity="0" result="BackgroundImageFix"/>
<feColorMatrix in="SourceAlpha" type="matrix" values="0 0 0 0 0 0 0 0 0 0 0 0 0 0 0 0 0 0 127 0" result="hardAlpha"/>
<feOffset dx="1" dy="1"/>
<feGaussianBlur stdDeviation="1.5"/>
<feComposite in2="hardAlpha" operator="out"/>
<feColorMatrix type="matrix" values="0 0 0 0 0 0 0 0 0 0 0 0 0 0 0 0 0 0 0.25 0"/>
<feBlend mode="normal" in2="BackgroundImageFix" result="effect1_dropShadow_170_3074"/>
<feBlend mode="normal" in="SourceGraphic" in2="effect1_dropShadow_170_3074" result="shape"/>
</filter>
<radialGradient id="paint0_radial_170_3074" cx="0" cy="0" r="1" gradientUnits="userSpaceOnUse" gradientTransform="translate(20.4997 15) rotate(90) scale(11.6667 11.6667)">
<stop stop-color="#FFA500"/>
<stop offset="1" stop-color="#885801"/>
</radialGradient>
<clipPath id="clip0_170_3074">
<rect width="40" height="40" fill="white" transform="translate(0.5)"/>
</clipPath>
</defs>
</svg>
