<svg width="41" height="41" viewBox="0 0 41 41" fill="none" xmlns="http://www.w3.org/2000/svg">
<g filter="url(#filter0_d_170_3067)">
<path d="M19.9954 3.33333L20.192 3.34499L20.2904 3.35833L20.392 3.38L20.577 3.43666C20.7048 3.48377 20.8263 3.54646 20.9387 3.62333L21.112 3.75999L21.537 4.12333C24.8992 6.91594 29.1485 8.4155 33.5187 8.35166L34.0887 8.33499C34.4613 8.31799 34.8289 8.42651 35.1326 8.64316C35.4363 8.85982 35.6585 9.17209 35.7637 9.52999C36.5827 12.316 36.8333 15.2381 36.5006 18.1229C36.168 21.0076 35.2589 23.796 33.8273 26.3225C32.3957 28.8489 30.4708 31.0618 28.1671 32.8296C25.8634 34.5975 23.2278 35.8842 20.417 36.6133C20.1427 36.6845 19.8547 36.6845 19.5804 36.6133C16.7694 35.8844 14.1336 34.5978 11.8297 32.83C9.52585 31.0623 7.60082 28.8494 6.16906 26.3229C4.7373 23.7965 3.82802 21.008 3.49526 18.1232C3.1625 15.2383 3.41305 12.3161 4.23202 9.52999C4.3372 9.17209 4.55942 8.85982 4.8631 8.64316C5.16678 8.42651 5.53436 8.31799 5.90702 8.33499C10.4695 8.54355 14.9455 7.04164 18.4587 4.12333L18.897 3.74833L19.057 3.62333C19.1694 3.54646 19.2909 3.48377 19.4187 3.43666L19.6054 3.38C19.6707 3.36422 19.7369 3.35253 19.8037 3.34499L19.9954 3.33333ZM26.1787 15.4883C26.0239 15.3334 25.8401 15.2104 25.6378 15.1266C25.4354 15.0427 25.2185 14.9995 24.9995 14.9995C24.7805 14.9995 24.5636 15.0427 24.3613 15.1266C24.159 15.2104 23.9751 15.3334 23.8204 15.4883L18.332 20.975L16.177 18.8217L16.0204 18.6833C15.6854 18.4243 15.2643 18.3025 14.8428 18.3427C14.4213 18.3828 14.0308 18.5819 13.7508 18.8995C13.4707 19.2171 13.322 19.6294 13.335 20.0527C13.3479 20.4759 13.5214 20.8784 13.8204 21.1783L17.1537 24.5117L17.3104 24.65C17.631 24.8987 18.0314 25.0219 18.4365 24.9965C18.8415 24.971 19.2234 24.7986 19.5104 24.5117L26.177 17.845L26.3154 17.6883C26.5641 17.3677 26.6873 16.9672 26.6618 16.5622C26.6364 16.1571 26.464 15.7753 26.177 15.4883H26.1787Z" fill="url(#paint0_radial_170_3067)"/>
<path d="M19.9954 3.33333L20.192 3.34499L20.2904 3.35833L20.392 3.38L20.577 3.43666C20.7048 3.48377 20.8263 3.54646 20.9387 3.62333L21.112 3.75999L21.537 4.12333C24.8992 6.91594 29.1485 8.4155 33.5187 8.35166L34.0887 8.33499C34.4613 8.31799 34.8289 8.42651 35.1326 8.64316C35.4363 8.85982 35.6585 9.17209 35.7637 9.52999C36.5827 12.316 36.8333 15.2381 36.5006 18.1229C36.168 21.0076 35.2589 23.796 33.8273 26.3225C32.3957 28.8489 30.4708 31.0618 28.1671 32.8296C25.8634 34.5975 23.2278 35.8842 20.417 36.6133C20.1427 36.6845 19.8547 36.6845 19.5804 36.6133C16.7694 35.8844 14.1336 34.5978 11.8297 32.83C9.52585 31.0623 7.60082 28.8494 6.16906 26.3229C4.7373 23.7965 3.82802 21.008 3.49526 18.1232C3.1625 15.2383 3.41305 12.3161 4.23202 9.52999C4.3372 9.17209 4.55942 8.85982 4.8631 8.64316C5.16678 8.42651 5.53436 8.31799 5.90702 8.33499C10.4695 8.54355 14.9455 7.04164 18.4587 4.12333L18.897 3.74833L19.057 3.62333C19.1694 3.54646 19.2909 3.48377 19.4187 3.43666L19.6054 3.38C19.6707 3.36422 19.7369 3.35253 19.8037 3.34499L19.9954 3.33333ZM26.1787 15.4883C26.0239 15.3334 25.8401 15.2104 25.6378 15.1266C25.4354 15.0427 25.2185 14.9995 24.9995 14.9995C24.7805 14.9995 24.5636 15.0427 24.3613 15.1266C24.159 15.2104 23.9751 15.3334 23.8204 15.4883L18.332 20.975L16.177 18.8217L16.0204 18.6833C15.6854 18.4243 15.2643 18.3025 14.8428 18.3427C14.4213 18.3828 14.0308 18.5819 13.7508 18.8995C13.4707 19.2171 13.322 19.6294 13.335 20.0527C13.3479 20.4759 13.5214 20.8784 13.8204 21.1783L17.1537 24.5117L17.3104 24.65C17.631 24.8987 18.0314 25.0219 18.4365 24.9965C18.8415 24.971 19.2234 24.7986 19.5104 24.5117L26.177 17.845L26.3154 17.6883C26.5641 17.3677 26.6873 16.9672 26.6618 16.5622C26.6364 16.1571 26.464 15.7753 26.177 15.4883H26.1787Z" stroke="white" stroke-width="2" stroke-linecap="round" stroke-linejoin="round"/>
</g>
<defs>
<filter id="filter0_d_170_3067" x="1.35254" y="1.33333" width="39.291" height="39.3334" filterUnits="userSpaceOnUse" color-interpolation-filters="sRGB">
<feFlood flood-opacity="0" result="BackgroundImageFix"/>
<feColorMatrix in="SourceAlpha" type="matrix" values="0 0 0 0 0 0 0 0 0 0 0 0 0 0 0 0 0 0 127 0" result="hardAlpha"/>
<feOffset dx="1" dy="1"/>
<feGaussianBlur stdDeviation="1"/>
<feComposite in2="hardAlpha" operator="out"/>
<feColorMatrix type="matrix" values="0 0 0 0 0 0 0 0 0 0 0 0 0 0 0 0 0 0 0.25 0"/>
<feBlend mode="normal" in2="BackgroundImageFix" result="effect1_dropShadow_170_3067"/>
<feBlend mode="normal" in="SourceGraphic" in2="effect1_dropShadow_170_3067" result="shape"/>
</filter>
<radialGradient id="paint0_radial_170_3067" cx="0" cy="0" r="1" gradientUnits="userSpaceOnUse" gradientTransform="translate(19.9979 20) rotate(90) scale(16.6667 16.6454)">
<stop stop-color="#003000"/>
<stop offset="1" stop-color="#008000"/>
</radialGradient>
</defs>
</svg>
